<?xml version="1.0" encoding="utf-8"?>
<!-- Generator: Adobe Illustrator 22.0.1, SVG Export Plug-In . SVG Version: 6.00 Build 0)  -->
<svg version="1.1" id="Calque_1" xmlns="http://www.w3.org/2000/svg" xmlns:xlink="http://www.w3.org/1999/xlink" x="0px" y="0px"
	 viewBox="0 0 24 24" style="enable-background:new 0 0 24 24;" xml:space="preserve">
<title>BACK</title>
<desc>Created with Sketch.</desc>
<path d="M23.4,11.2H2.2l8.1-8.1c0.2-0.2,0.2-0.7,0-0.9c-0.2-0.3-0.7-0.3-0.9,0l-9.2,9.2c-0.2,0.2-0.2,0.7,0,0.9l9.2,9.2
	c0.1,0.1,0.3,0.2,0.5,0.2c0.2,0,0.3-0.1,0.5-0.2c0.2-0.2,0.2-0.7,0-0.9l-8.1-8.1h21.2c0.4,0,0.6-0.3,0.6-0.6S23.7,11.2,23.4,11.2z"
	/>
</svg>
